<?xml version="1.0" encoding="utf-8"?>
<!-- Generator: Adobe Illustrator 16.0.0, SVG Export Plug-In . SVG Version: 6.00 Build 0)  -->
<!DOCTYPE svg PUBLIC "-//W3C//DTD SVG 1.1//EN" "http://www.w3.org/Graphics/SVG/1.1/DTD/svg11.dtd">
<svg version="1.1" id="Layer_1" xmlns="http://www.w3.org/2000/svg" xmlns:xlink="http://www.w3.org/1999/xlink" x="0px" y="0px"
	 width="400px" height="400px" viewBox="0 0 400 400" enable-background="new 0 0 400 400" xml:space="preserve">
<g id="Layer_3">
	<path fill="#EBF2F6" d="M200,255.217c-30.447,0-55.217-24.771-55.217-55.217c0-30.447,24.77-55.217,55.217-55.217
		c30.445,0,55.217,24.77,55.217,55.217C255.217,230.445,230.445,255.217,200,255.217z M200,146.783
		c-29.344,0-53.217,23.873-53.217,53.217s23.873,53.217,53.217,53.217s53.217-23.873,53.217-53.217S229.344,146.783,200,146.783z"/>
</g>
<g id="Layer_4">

		<linearGradient id="SVGID_1_" gradientUnits="userSpaceOnUse" x1="503.6094" y1="-173" x2="503.6094" y2="-62.0005" gradientTransform="matrix(1 0 0 -1 -276 35)">
		<stop  offset="0" style="stop-color:#73BBD4"/>
		<stop  offset="0.4203" style="stop-color:#ACE0F2"/>
		<stop  offset="0.6035" style="stop-color:#c9eaf6"/>
	</linearGradient>
	<path fill="url(#SVGID_1_)" d="M200,144.783v2c29.344,0,53.217,23.873,53.217,53.217h2
		C255.217,169.553,230.445,144.783,200,144.783z"/>
</g>
</svg>
